# xmcd
#
# Track frame offsets:
# 150
# 24133
# 35071
# 55032
# 74938
# 93816
# 109795
# 128417
# 144617
# 173302
# 195292
# 213625
# 246347
# 279571
#
# Disc length: 4389 seconds
#
#
# Revision: 0
# Processed by: cddbd v1.5.1PL0 Copyright (c) Steve Scherf et al.
# Submitted via: FreeRIP 2.30 
#
DISCID=c111230e
DTITLE=Eddie vaan Shaw Jr. - Ass Whoopin!!!
DYEAR=2005
DGENRE=Blues
TTITLE0=Mornin Rain
TTITLE1=Never Used Blues
TTITLE2=It hurts me too
TTITLE3=Same old blue
TTITLE4=TV preacher
TTITLE5=Pimp slap ride
TTITLE6=Roller coaster blues
TTITLE7=Give me time
TTITLE8=I've heard
TTITLE9=BS Makes the world go round
TTITLE10=I heard voices cryin inside my head
TTITLE11=same old blues
TTITLE12=Mornin rain
TTITLE13=I'm crazy now
EXTD=
EXTT0=
EXTT1=
EXTT2=
EXTT3=
EXTT4=
EXTT5=
EXTT6=
EXTT7=
EXTT8=
EXTT9=
EXTT10=
EXTT11=
EXTT12=
EXTT13=
PLAYORDER=
